<svg width="16" height="19" viewBox="0 0 16 19" fill="none" xmlns="http://www.w3.org/2000/svg">
<path d="M0 7C0 3.13401 3.13401 0 7 0H13C14.6569 0 16 1.34315 16 3V16C16 17.6569 14.6569 19 13 19H3C1.34315 19 0 17.6569 0 16V7Z" fill="black"/>
<path d="M13.3214 11.5725C13.526 11.7009 13.7566 11.777 13.9962 11.777V13.1843C13.7566 13.1843 13.526 13.1102 13.3214 12.9816C13.109 12.8461 12.872 12.7664 12.6231 12.7664C12.3756 12.7664 12.1373 12.8461 11.9276 12.9816C11.7204 13.1102 11.4911 13.1843 11.2502 13.1843C11.0105 13.1843 10.7798 13.1102 10.5726 12.9816C10.3616 12.8461 10.1246 12.7664 9.87711 12.7664C9.6282 12.7664 9.39116 12.8461 9.17877 12.9816C8.97425 13.1102 8.74241 13.1843 8.50269 13.1843C8.26297 13.1843 8.03112 13.1102 7.82647 12.9816C7.61422 12.8461 7.37703 12.7664 7.12958 12.7664C6.88077 12.7664 6.64227 12.8461 6.43255 12.9816C6.22672 13.1102 5.99619 13.1843 5.75647 13.1843C5.51539 13.1843 5.28491 13.1102 5.07772 12.9816C4.86805 12.8461 4.62964 12.7664 4.38205 12.7664C4.13459 12.7664 3.89619 12.8461 3.68516 12.9816C3.26502 13.2516 2.7545 13.2529 2.33488 12.9816C2.22964 12.9136 2.11719 12.8597 2 12.8228V11.4137C2.11719 11.4506 2.22964 11.5045 2.33488 11.5725C2.75628 11.845 3.26398 11.8431 3.68516 11.5725C3.89619 11.4369 4.13459 11.3573 4.38205 11.3573C4.62964 11.3573 4.868 11.4369 5.07772 11.5725C5.28491 11.7009 5.51544 11.777 5.75647 11.777C5.99619 11.777 6.22672 11.7009 6.43255 11.5725C6.64227 11.4369 6.88077 11.3573 7.12958 11.3573C7.37703 11.3573 7.61422 11.4369 7.82647 11.5725C8.03112 11.7009 8.26297 11.777 8.50269 11.777C8.74241 11.777 8.97425 11.7009 9.17877 11.5725C9.39111 11.4369 9.6282 11.3573 9.87711 11.3573C10.1246 11.3573 10.3616 11.4369 10.5726 11.5725C10.7798 11.7009 11.0105 11.777 11.2502 11.777C11.4911 11.777 11.7204 11.7009 11.9276 11.5725C12.1372 11.4369 12.3756 11.3573 12.6231 11.3573C12.872 11.3573 13.109 11.4369 13.3214 11.5725ZM12.6231 14.1727C12.3756 14.1727 12.1372 14.2524 11.9276 14.3879C11.7204 14.5163 11.4911 14.5924 11.2502 14.5924C11.0105 14.5924 10.7798 14.5163 10.5726 14.3879C10.3616 14.2524 10.1246 14.1727 9.87711 14.1727C9.6282 14.1727 9.39111 14.2524 9.17877 14.3879C8.97425 14.5163 8.74241 14.5924 8.50269 14.5924C8.26297 14.5924 8.03112 14.5163 7.82647 14.3879C7.61422 14.2524 7.37703 14.1727 7.12958 14.1727C6.88077 14.1727 6.64227 14.2524 6.43255 14.3879C6.22672 14.5163 5.99619 14.5924 5.75647 14.5924C5.51544 14.5924 5.28491 14.5163 5.07772 14.3879C4.868 14.2524 4.62964 14.1727 4.38205 14.1727C4.13459 14.1727 3.89619 14.2524 3.68516 14.3879C3.26398 14.6585 2.75628 14.6604 2.33488 14.3879C2.22964 14.3199 2.11719 14.266 2 14.2291V15.6382C2.11719 15.6751 2.22964 15.729 2.33488 15.797C2.7545 16.0683 3.26502 16.067 3.68516 15.797C3.89619 15.6615 4.13459 15.5818 4.38205 15.5818C4.62964 15.5818 4.86805 15.6615 5.07772 15.797C5.28491 15.9256 5.51539 15.9997 5.75647 15.9997C5.99619 15.9997 6.22672 15.9256 6.43255 15.797C6.64227 15.6615 6.88077 15.5818 7.12958 15.5818C7.37703 15.5818 7.61422 15.6615 7.82647 15.797C8.03112 15.9256 8.26297 15.9997 8.50269 15.9997C8.74241 15.9997 8.97425 15.9256 9.17877 15.797C9.39116 15.6615 9.6282 15.5818 9.87711 15.5818C10.1246 15.5818 10.3616 15.6615 10.5726 15.797C10.7798 15.9256 11.0105 15.9997 11.2502 15.9997C11.4911 15.9997 11.7204 15.9256 11.9276 15.797C12.1373 15.6615 12.3756 15.5818 12.6231 15.5818C12.872 15.5818 13.109 15.6615 13.3214 15.797C13.526 15.9256 13.7566 15.9997 13.9962 15.9997V14.5924C13.7566 14.5924 13.526 14.5163 13.3214 14.3879C13.109 14.2524 12.872 14.1727 12.6231 14.1727ZM13.5654 9.44627C13.4433 9.38066 13.2865 9.34077 13.1183 9.23734C12.8582 9.05913 12.6408 8.81146 12.6094 8.43512C12.566 7.91604 12.8828 7.39741 13.3906 7.74453C13.4302 7.14044 12.9898 6.55067 12.4098 6.55725C11.9223 6.56278 11.375 6.9608 10.7544 8.09777C10.5457 8.4801 10.0863 9.22295 9.18341 9.22295C8.45825 9.22295 7.87583 8.50997 8 7.51789C8.10969 6.64173 8.89508 6.2842 9.33594 6.69231C9.37203 5.92732 8.72291 5 7.8125 5C7.00095 5 6.38281 5.52885 5.42188 6.83876C4.98589 7.43308 3.89028 9.03485 2 9.58394C2 9.98065 2.60914 10.3631 3.00922 10.363C3.24861 10.363 3.47947 10.2869 3.6852 10.1583C3.89605 10.0226 4.13488 9.94329 4.38233 9.94329C4.62978 9.94329 4.86805 10.0226 5.07777 10.1583C5.28519 10.2869 5.51548 10.363 5.75661 10.363C5.996 10.363 6.22686 10.2869 6.43259 10.1583C6.64227 10.0226 6.88058 9.94329 7.12972 9.94329C7.37712 9.94329 7.61427 10.0226 7.82628 10.1583C8.03084 10.2869 8.26283 10.363 8.50283 10.363C8.74222 10.363 8.97425 10.2869 9.17881 10.1583C9.39083 10.0226 9.62797 9.94329 9.87711 9.94329C10.1246 9.94329 10.3617 10.0226 10.5725 10.1583C10.78 10.2869 11.0103 10.363 11.2503 10.363C11.4909 10.363 11.7206 10.2869 11.9274 10.1583C12.1371 10.0226 12.3754 9.94329 12.6229 9.94329C12.872 9.94329 13.1091 10.0226 13.3217 10.1583C13.5257 10.2869 13.7606 10.3774 14 10.3774V10.2119C14 10.0627 13.9414 9.64844 13.5654 9.44627Z" fill="white"/>
</svg>
