<svg width="152" height="27" viewBox="0 0 152 27" fill="none" xmlns="http://www.w3.org/2000/svg">
<path d="M19.3906 22V6H29.9844V8.78906H22.7734V12.6016H29.2813V15.3906H22.7734V22H19.3906ZM34.6454 6V22H31.3173V6H34.6454ZM41.8533 22.2344C40.6397 22.2344 39.5903 21.9766 38.7048 21.4609C37.8246 20.9401 37.1449 20.2161 36.6658 19.2891C36.1866 18.3568 35.947 17.276 35.947 16.0469C35.947 14.8073 36.1866 13.724 36.6658 12.7969C37.1449 11.8646 37.8246 11.1406 38.7048 10.625C39.5903 10.1042 40.6397 9.84375 41.8533 9.84375C43.0668 9.84375 44.1137 10.1042 44.9939 10.625C45.8793 11.1406 46.5616 11.8646 47.0408 12.7969C47.5199 13.724 47.7595 14.8073 47.7595 16.0469C47.7595 17.276 47.5199 18.3568 47.0408 19.2891C46.5616 20.2161 45.8793 20.9401 44.9939 21.4609C44.1137 21.9766 43.0668 22.2344 41.8533 22.2344ZM41.8689 19.6562C42.421 19.6562 42.8819 19.5 43.2517 19.1875C43.6215 18.8698 43.9002 18.4375 44.0877 17.8906C44.2804 17.3437 44.3767 16.7214 44.3767 16.0234C44.3767 15.3255 44.2804 14.7031 44.0877 14.1562C43.9002 13.6094 43.6215 13.1771 43.2517 12.8594C42.8819 12.5417 42.421 12.3828 41.8689 12.3828C41.3116 12.3828 40.8429 12.5417 40.4627 12.8594C40.0877 13.1771 39.8038 13.6094 39.6111 14.1562C39.4236 14.7031 39.3298 15.3255 39.3298 16.0234C39.3298 16.7214 39.4236 17.3437 39.6111 17.8906C39.8038 18.4375 40.0877 18.8698 40.4627 19.1875C40.8429 19.5 41.3116 19.6562 41.8689 19.6562ZM51.11 22L47.8444 10H51.2116L53.0709 18.0625H53.1803L55.1178 10H58.4225L60.3913 18.0156H60.4928L62.3209 10H65.6803L62.4225 22H58.8991L56.8366 14.4531H56.6881L54.6256 22H51.11ZM80.021 6V22H77.0991L70.1382 11.9297H70.021V22H66.6382V6H69.607L76.5132 16.0625H76.6538V6H80.021ZM87.2953 22.2344C86.0818 22.2344 85.0323 21.9766 84.1469 21.4609C83.2667 20.9401 82.587 20.2161 82.1078 19.2891C81.6286 18.3568 81.3891 17.276 81.3891 16.0469C81.3891 14.8073 81.6286 13.724 82.1078 12.7969C82.587 11.8646 83.2667 11.1406 84.1469 10.625C85.0323 10.1042 86.0818 9.84375 87.2953 9.84375C88.5089 9.84375 89.5557 10.1042 90.4359 10.625C91.3214 11.1406 92.0036 11.8646 92.4828 12.7969C92.962 13.724 93.2016 14.8073 93.2016 16.0469C93.2016 17.276 92.962 18.3568 92.4828 19.2891C92.0036 20.2161 91.3214 20.9401 90.4359 21.4609C89.5557 21.9766 88.5089 22.2344 87.2953 22.2344ZM87.3109 19.6562C87.863 19.6562 88.324 19.5 88.6937 19.1875C89.0635 18.8698 89.3422 18.4375 89.5297 17.8906C89.7224 17.3437 89.8187 16.7214 89.8187 16.0234C89.8187 15.3255 89.7224 14.7031 89.5297 14.1562C89.3422 13.6094 89.0635 13.1771 88.6937 12.8594C88.324 12.5417 87.863 12.3828 87.3109 12.3828C86.7536 12.3828 86.2849 12.5417 85.9047 12.8594C85.5297 13.1771 85.2458 13.6094 85.0531 14.1562C84.8656 14.7031 84.7719 15.3255 84.7719 16.0234C84.7719 16.7214 84.8656 17.3437 85.0531 17.8906C85.2458 18.4375 85.5297 18.8698 85.9047 19.1875C86.2849 19.5 86.7536 19.6562 87.3109 19.6562ZM100.868 10V12.5H93.6419V10H100.868ZM95.2825 7.125H98.6106V18.3125C98.6106 18.6198 98.6575 18.8594 98.7513 19.0312C98.845 19.1979 98.9752 19.3151 99.1419 19.3828C99.3138 19.4505 99.5117 19.4844 99.7356 19.4844C99.8919 19.4844 100.048 19.4714 100.204 19.4453C100.361 19.4141 100.48 19.3906 100.564 19.375L101.087 21.8516C100.921 21.9036 100.686 21.9635 100.384 22.0313C100.082 22.1042 99.7148 22.1484 99.2825 22.1641C98.4804 22.1953 97.7773 22.0885 97.1731 21.8437C96.5742 21.599 96.108 21.2187 95.7747 20.7031C95.4414 20.1875 95.2773 19.5365 95.2825 18.75V7.125ZM107.496 22.2344C106.262 22.2344 105.199 21.9844 104.309 21.4844C103.423 20.9792 102.741 20.2656 102.262 19.3437C101.783 18.4167 101.543 17.3203 101.543 16.0547C101.543 14.8203 101.783 13.737 102.262 12.8047C102.741 11.8724 103.416 11.1458 104.285 10.625C105.16 10.1042 106.186 9.84375 107.363 9.84375C108.155 9.84375 108.892 9.97135 109.574 10.2266C110.262 10.4766 110.861 10.8542 111.371 11.3594C111.887 11.8646 112.288 12.5 112.574 13.2656C112.861 14.026 113.004 14.9167 113.004 15.9375V16.8516H102.871V14.7891H109.871C109.871 14.3099 109.767 13.8854 109.559 13.5156C109.35 13.1458 109.061 12.8568 108.692 12.6484C108.327 12.4349 107.902 12.3281 107.418 12.3281C106.913 12.3281 106.465 12.4453 106.074 12.6797C105.689 12.9089 105.387 13.2187 105.168 13.6094C104.949 13.9948 104.837 14.4245 104.832 14.8984V16.8594C104.832 17.4531 104.942 17.9661 105.16 18.3984C105.384 18.8307 105.699 19.1641 106.106 19.3984C106.512 19.6328 106.994 19.75 107.551 19.75C107.921 19.75 108.259 19.6979 108.567 19.5938C108.874 19.4896 109.137 19.3333 109.356 19.125C109.574 18.9167 109.741 18.6615 109.856 18.3594L112.934 18.5625C112.777 19.3021 112.457 19.9479 111.973 20.5C111.494 21.0469 110.874 21.474 110.113 21.7813C109.358 22.0833 108.486 22.2344 107.496 22.2344ZM124.28 13.4219L121.233 13.6094C121.181 13.349 121.069 13.1146 120.897 12.9062C120.726 12.6927 120.499 12.5234 120.218 12.3984C119.942 12.2682 119.611 12.2031 119.226 12.2031C118.71 12.2031 118.275 12.3125 117.921 12.5312C117.567 12.7448 117.39 13.0312 117.39 13.3906C117.39 13.6771 117.504 13.9193 117.733 14.1172C117.963 14.3151 118.356 14.474 118.913 14.5937L121.085 15.0312C122.252 15.2708 123.121 15.6562 123.694 16.1875C124.267 16.7187 124.554 17.4167 124.554 18.2812C124.554 19.0677 124.322 19.7578 123.858 20.3516C123.4 20.9453 122.77 21.4089 121.968 21.7422C121.171 22.0703 120.252 22.2344 119.21 22.2344C117.621 22.2344 116.356 21.9036 115.413 21.2422C114.476 20.5755 113.926 19.6693 113.765 18.5234L117.038 18.3516C117.137 18.8359 117.377 19.2057 117.757 19.4609C118.137 19.7109 118.624 19.8359 119.218 19.8359C119.801 19.8359 120.27 19.724 120.624 19.5C120.983 19.2708 121.166 18.9766 121.171 18.6172C121.166 18.3151 121.038 18.0677 120.788 17.875C120.538 17.6771 120.153 17.526 119.632 17.4219L117.554 17.0078C116.382 16.7734 115.509 16.3672 114.937 15.7891C114.369 15.2109 114.085 14.474 114.085 13.5781C114.085 12.8073 114.293 12.1432 114.71 11.5859C115.132 11.0286 115.723 10.599 116.483 10.2969C117.249 9.99479 118.145 9.84375 119.171 9.84375C120.687 9.84375 121.879 10.1641 122.749 10.8047C123.624 11.4453 124.134 12.3177 124.28 13.4219ZM127.715 22.2031C127.199 22.2031 126.756 22.0208 126.387 21.6562C126.022 21.2865 125.84 20.8437 125.84 20.3281C125.84 19.8177 126.022 19.3802 126.387 19.0156C126.756 18.651 127.199 18.4687 127.715 18.4687C128.215 18.4687 128.652 18.651 129.027 19.0156C129.402 19.3802 129.59 19.8177 129.59 20.3281C129.59 20.6719 129.501 20.987 129.324 21.2734C129.152 21.5547 128.926 21.7812 128.644 21.9531C128.363 22.1198 128.053 22.2031 127.715 22.2031ZM134.262 22H130.637L136.161 6H140.52L146.036 22H142.411L138.403 9.65625H138.278L134.262 22ZM134.036 15.7109H142.598V18.3516H134.036V15.7109ZM150.465 6V22H147.082V6H150.465Z" fill="black"/>
<path d="M0 10C0 6.13401 3.13401 3 7 3H13C14.6569 3 16 4.34315 16 6V19C16 20.6569 14.6569 22 13 22H3C1.34315 22 0 20.6569 0 19V10Z" fill="black"/>
<path d="M3.5 9.25L4.41483 9.63118C4.9739 9.86412 5.60882 9.82843 6.13826 9.5343L6.2 9.5C6.75971 9.18905 7.44029 9.18905 8 9.5C8.55971 9.81095 9.24029 9.81095 9.8 9.5L9.86175 9.4657C10.3912 9.17157 11.0261 9.13588 11.5852 9.36882L12.5 9.75" stroke="white" stroke-linecap="round"/>
<path d="M3.5 13.25L4.41483 13.6312C4.9739 13.8641 5.60882 13.8284 6.13826 13.5343L6.2 13.5C6.75971 13.189 7.44029 13.189 8 13.5C8.55971 13.811 9.24029 13.811 9.8 13.5L9.86175 13.4657C10.3912 13.1716 11.0261 13.1359 11.5852 13.3688L12.5 13.75" stroke="white" stroke-linecap="round"/>
<path d="M3.5 17.25L4.41483 17.6312C4.9739 17.8641 5.60882 17.8284 6.13826 17.5343L6.2 17.5C6.75971 17.189 7.44029 17.189 8 17.5C8.55971 17.811 9.24029 17.811 9.8 17.5L9.86175 17.4657C10.3912 17.1716 11.0261 17.1359 11.5852 17.3688L12.5 17.75" stroke="white" stroke-linecap="round"/>
</svg>
