<svg width="152" height="27" viewBox="0 0 152 27" fill="none" xmlns="http://www.w3.org/2000/svg">
<path d="M19.3906 22V6H29.9844V8.78906H22.7734V12.6016H29.2813V15.3906H22.7734V22H19.3906ZM34.6454 6V22H31.3173V6H34.6454ZM41.8533 22.2344C40.6397 22.2344 39.5903 21.9766 38.7048 21.4609C37.8246 20.9401 37.1449 20.2161 36.6658 19.2891C36.1866 18.3568 35.947 17.276 35.947 16.0469C35.947 14.8073 36.1866 13.724 36.6658 12.7969C37.1449 11.8646 37.8246 11.1406 38.7048 10.625C39.5903 10.1042 40.6397 9.84375 41.8533 9.84375C43.0668 9.84375 44.1137 10.1042 44.9939 10.625C45.8793 11.1406 46.5616 11.8646 47.0408 12.7969C47.5199 13.724 47.7595 14.8073 47.7595 16.0469C47.7595 17.276 47.5199 18.3568 47.0408 19.2891C46.5616 20.2161 45.8793 20.9401 44.9939 21.4609C44.1137 21.9766 43.0668 22.2344 41.8533 22.2344ZM41.8689 19.6562C42.421 19.6562 42.8819 19.5 43.2517 19.1875C43.6215 18.8698 43.9002 18.4375 44.0877 17.8906C44.2804 17.3437 44.3767 16.7214 44.3767 16.0234C44.3767 15.3255 44.2804 14.7031 44.0877 14.1562C43.9002 13.6094 43.6215 13.1771 43.2517 12.8594C42.8819 12.5417 42.421 12.3828 41.8689 12.3828C41.3116 12.3828 40.8429 12.5417 40.4627 12.8594C40.0877 13.1771 39.8038 13.6094 39.6111 14.1562C39.4236 14.7031 39.3298 15.3255 39.3298 16.0234C39.3298 16.7214 39.4236 17.3437 39.6111 17.8906C39.8038 18.4375 40.0877 18.8698 40.4627 19.1875C40.8429 19.5 41.3116 19.6562 41.8689 19.6562ZM51.11 22L47.8444 10H51.2116L53.0709 18.0625H53.1803L55.1178 10H58.4225L60.3913 18.0156H60.4928L62.3209 10H65.6803L62.4225 22H58.8991L56.8366 14.4531H56.6881L54.6256 22H51.11ZM80.021 6V22H77.0991L70.1382 11.9297H70.021V22H66.6382V6H69.607L76.5132 16.0625H76.6538V6H80.021ZM87.2953 22.2344C86.0818 22.2344 85.0323 21.9766 84.1469 21.4609C83.2667 20.9401 82.587 20.2161 82.1078 19.2891C81.6286 18.3568 81.3891 17.276 81.3891 16.0469C81.3891 14.8073 81.6286 13.724 82.1078 12.7969C82.587 11.8646 83.2667 11.1406 84.1469 10.625C85.0323 10.1042 86.0818 9.84375 87.2953 9.84375C88.5089 9.84375 89.5557 10.1042 90.4359 10.625C91.3214 11.1406 92.0036 11.8646 92.4828 12.7969C92.962 13.724 93.2016 14.8073 93.2016 16.0469C93.2016 17.276 92.962 18.3568 92.4828 19.2891C92.0036 20.2161 91.3214 20.9401 90.4359 21.4609C89.5557 21.9766 88.5089 22.2344 87.2953 22.2344ZM87.3109 19.6562C87.863 19.6562 88.324 19.5 88.6937 19.1875C89.0635 18.8698 89.3422 18.4375 89.5297 17.8906C89.7224 17.3437 89.8187 16.7214 89.8187 16.0234C89.8187 15.3255 89.7224 14.7031 89.5297 14.1562C89.3422 13.6094 89.0635 13.1771 88.6937 12.8594C88.324 12.5417 87.863 12.3828 87.3109 12.3828C86.7536 12.3828 86.2849 12.5417 85.9047 12.8594C85.5297 13.1771 85.2458 13.6094 85.0531 14.1562C84.8656 14.7031 84.7719 15.3255 84.7719 16.0234C84.7719 16.7214 84.8656 17.3437 85.0531 17.8906C85.2458 18.4375 85.5297 18.8698 85.9047 19.1875C86.2849 19.5 86.7536 19.6562 87.3109 19.6562ZM100.868 10V12.5H93.6419V10H100.868ZM95.2825 7.125H98.6106V18.3125C98.6106 18.6198 98.6575 18.8594 98.7513 19.0312C98.845 19.1979 98.9752 19.3151 99.1419 19.3828C99.3138 19.4505 99.5117 19.4844 99.7356 19.4844C99.8919 19.4844 100.048 19.4714 100.204 19.4453C100.361 19.4141 100.48 19.3906 100.564 19.375L101.087 21.8516C100.921 21.9036 100.686 21.9635 100.384 22.0313C100.082 22.1042 99.7148 22.1484 99.2825 22.1641C98.4804 22.1953 97.7773 22.0885 97.1731 21.8437C96.5742 21.599 96.108 21.2187 95.7747 20.7031C95.4414 20.1875 95.2773 19.5365 95.2825 18.75V7.125ZM107.496 22.2344C106.262 22.2344 105.199 21.9844 104.309 21.4844C103.423 20.9792 102.741 20.2656 102.262 19.3437C101.783 18.4167 101.543 17.3203 101.543 16.0547C101.543 14.8203 101.783 13.737 102.262 12.8047C102.741 11.8724 103.416 11.1458 104.285 10.625C105.16 10.1042 106.186 9.84375 107.363 9.84375C108.155 9.84375 108.892 9.97135 109.574 10.2266C110.262 10.4766 110.861 10.8542 111.371 11.3594C111.887 11.8646 112.288 12.5 112.574 13.2656C112.861 14.026 113.004 14.9167 113.004 15.9375V16.8516H102.871V14.7891H109.871C109.871 14.3099 109.767 13.8854 109.559 13.5156C109.35 13.1458 109.061 12.8568 108.692 12.6484C108.327 12.4349 107.902 12.3281 107.418 12.3281C106.913 12.3281 106.465 12.4453 106.074 12.6797C105.689 12.9089 105.387 13.2187 105.168 13.6094C104.949 13.9948 104.837 14.4245 104.832 14.8984V16.8594C104.832 17.4531 104.942 17.9661 105.16 18.3984C105.384 18.8307 105.699 19.1641 106.106 19.3984C106.512 19.6328 106.994 19.75 107.551 19.75C107.921 19.75 108.259 19.6979 108.567 19.5938C108.874 19.4896 109.137 19.3333 109.356 19.125C109.574 18.9167 109.741 18.6615 109.856 18.3594L112.934 18.5625C112.777 19.3021 112.457 19.9479 111.973 20.5C111.494 21.0469 110.874 21.474 110.113 21.7813C109.358 22.0833 108.486 22.2344 107.496 22.2344ZM124.28 13.4219L121.233 13.6094C121.181 13.349 121.069 13.1146 120.897 12.9062C120.726 12.6927 120.499 12.5234 120.218 12.3984C119.942 12.2682 119.611 12.2031 119.226 12.2031C118.71 12.2031 118.275 12.3125 117.921 12.5312C117.567 12.7448 117.39 13.0312 117.39 13.3906C117.39 13.6771 117.504 13.9193 117.733 14.1172C117.963 14.3151 118.356 14.474 118.913 14.5937L121.085 15.0312C122.252 15.2708 123.121 15.6562 123.694 16.1875C124.267 16.7187 124.554 17.4167 124.554 18.2812C124.554 19.0677 124.322 19.7578 123.858 20.3516C123.4 20.9453 122.77 21.4089 121.968 21.7422C121.171 22.0703 120.252 22.2344 119.21 22.2344C117.621 22.2344 116.356 21.9036 115.413 21.2422C114.476 20.5755 113.926 19.6693 113.765 18.5234L117.038 18.3516C117.137 18.8359 117.377 19.2057 117.757 19.4609C118.137 19.7109 118.624 19.8359 119.218 19.8359C119.801 19.8359 120.27 19.724 120.624 19.5C120.983 19.2708 121.166 18.9766 121.171 18.6172C121.166 18.3151 121.038 18.0677 120.788 17.875C120.538 17.6771 120.153 17.526 119.632 17.4219L117.554 17.0078C116.382 16.7734 115.509 16.3672 114.937 15.7891C114.369 15.2109 114.085 14.474 114.085 13.5781C114.085 12.8073 114.293 12.1432 114.71 11.5859C115.132 11.0286 115.723 10.599 116.483 10.2969C117.249 9.99479 118.145 9.84375 119.171 9.84375C120.687 9.84375 121.879 10.1641 122.749 10.8047C123.624 11.4453 124.134 12.3177 124.28 13.4219ZM127.715 22.2031C127.199 22.2031 126.756 22.0208 126.387 21.6562C126.022 21.2865 125.84 20.8437 125.84 20.3281C125.84 19.8177 126.022 19.3802 126.387 19.0156C126.756 18.651 127.199 18.4687 127.715 18.4687C128.215 18.4687 128.652 18.651 129.027 19.0156C129.402 19.3802 129.59 19.8177 129.59 20.3281C129.59 20.6719 129.501 20.987 129.324 21.2734C129.152 21.5547 128.926 21.7812 128.644 21.9531C128.363 22.1198 128.053 22.2031 127.715 22.2031ZM134.262 22H130.637L136.161 6H140.52L146.036 22H142.411L138.403 9.65625H138.278L134.262 22ZM134.036 15.7109H142.598V18.3516H134.036V15.7109ZM150.465 6V22H147.082V6H150.465Z" fill="black"/>
<path d="M0 10C0 6.13401 3.13401 3 7 3H13C14.6569 3 16 4.34315 16 6V19C16 20.6569 14.6569 22 13 22H3C1.34315 22 0 20.6569 0 19V10Z" fill="black"/>
<path d="M13.3214 14.5725C13.526 14.7009 13.7566 14.777 13.9962 14.777V16.1843C13.7566 16.1843 13.526 16.1102 13.3214 15.9816C13.109 15.8461 12.872 15.7664 12.6231 15.7664C12.3756 15.7664 12.1373 15.8461 11.9276 15.9816C11.7204 16.1102 11.4911 16.1843 11.2502 16.1843C11.0105 16.1843 10.7798 16.1102 10.5726 15.9816C10.3616 15.8461 10.1246 15.7664 9.87711 15.7664C9.6282 15.7664 9.39116 15.8461 9.17877 15.9816C8.97425 16.1102 8.74241 16.1843 8.50269 16.1843C8.26297 16.1843 8.03112 16.1102 7.82647 15.9816C7.61422 15.8461 7.37703 15.7664 7.12958 15.7664C6.88077 15.7664 6.64227 15.8461 6.43255 15.9816C6.22672 16.1102 5.99619 16.1843 5.75647 16.1843C5.51539 16.1843 5.28491 16.1102 5.07772 15.9816C4.86805 15.8461 4.62964 15.7664 4.38205 15.7664C4.13459 15.7664 3.89619 15.8461 3.68516 15.9816C3.26502 16.2516 2.7545 16.2529 2.33488 15.9816C2.22964 15.9136 2.11719 15.8597 2 15.8228V14.4137C2.11719 14.4506 2.22964 14.5045 2.33488 14.5725C2.75628 14.845 3.26398 14.8431 3.68516 14.5725C3.89619 14.4369 4.13459 14.3573 4.38205 14.3573C4.62964 14.3573 4.868 14.4369 5.07772 14.5725C5.28491 14.7009 5.51544 14.777 5.75647 14.777C5.99619 14.777 6.22672 14.7009 6.43255 14.5725C6.64227 14.4369 6.88077 14.3573 7.12958 14.3573C7.37703 14.3573 7.61422 14.4369 7.82647 14.5725C8.03112 14.7009 8.26297 14.777 8.50269 14.777C8.74241 14.777 8.97425 14.7009 9.17877 14.5725C9.39111 14.4369 9.6282 14.3573 9.87711 14.3573C10.1246 14.3573 10.3616 14.4369 10.5726 14.5725C10.7798 14.7009 11.0105 14.777 11.2502 14.777C11.4911 14.777 11.7204 14.7009 11.9276 14.5725C12.1372 14.4369 12.3756 14.3573 12.6231 14.3573C12.872 14.3573 13.109 14.4369 13.3214 14.5725ZM12.6231 17.1727C12.3756 17.1727 12.1372 17.2524 11.9276 17.3879C11.7204 17.5163 11.4911 17.5924 11.2502 17.5924C11.0105 17.5924 10.7798 17.5163 10.5726 17.3879C10.3616 17.2524 10.1246 17.1727 9.87711 17.1727C9.6282 17.1727 9.39111 17.2524 9.17877 17.3879C8.97425 17.5163 8.74241 17.5924 8.50269 17.5924C8.26297 17.5924 8.03112 17.5163 7.82647 17.3879C7.61422 17.2524 7.37703 17.1727 7.12958 17.1727C6.88077 17.1727 6.64227 17.2524 6.43255 17.3879C6.22672 17.5163 5.99619 17.5924 5.75647 17.5924C5.51544 17.5924 5.28491 17.5163 5.07772 17.3879C4.868 17.2524 4.62964 17.1727 4.38205 17.1727C4.13459 17.1727 3.89619 17.2524 3.68516 17.3879C3.26398 17.6585 2.75628 17.6604 2.33488 17.3879C2.22964 17.3199 2.11719 17.266 2 17.2291V18.6382C2.11719 18.6751 2.22964 18.729 2.33488 18.797C2.7545 19.0683 3.26502 19.067 3.68516 18.797C3.89619 18.6615 4.13459 18.5818 4.38205 18.5818C4.62964 18.5818 4.86805 18.6615 5.07772 18.797C5.28491 18.9256 5.51539 18.9997 5.75647 18.9997C5.99619 18.9997 6.22672 18.9256 6.43255 18.797C6.64227 18.6615 6.88077 18.5818 7.12958 18.5818C7.37703 18.5818 7.61422 18.6615 7.82647 18.797C8.03112 18.9256 8.26297 18.9997 8.50269 18.9997C8.74241 18.9997 8.97425 18.9256 9.17877 18.797C9.39116 18.6615 9.6282 18.5818 9.87711 18.5818C10.1246 18.5818 10.3616 18.6615 10.5726 18.797C10.7798 18.9256 11.0105 18.9997 11.2502 18.9997C11.4911 18.9997 11.7204 18.9256 11.9276 18.797C12.1373 18.6615 12.3756 18.5818 12.6231 18.5818C12.872 18.5818 13.109 18.6615 13.3214 18.797C13.526 18.9256 13.7566 18.9997 13.9962 18.9997V17.5924C13.7566 17.5924 13.526 17.5163 13.3214 17.3879C13.109 17.2524 12.872 17.1727 12.6231 17.1727ZM13.5654 12.4463C13.4433 12.3807 13.2865 12.3408 13.1183 12.2373C12.8582 12.0591 12.6408 11.8115 12.6094 11.4351C12.566 10.916 12.8828 10.3974 13.3906 10.7445C13.4302 10.1404 12.9898 9.55067 12.4098 9.55725C11.9223 9.56278 11.375 9.9608 10.7544 11.0978C10.5457 11.4801 10.0863 12.223 9.18341 12.223C8.45825 12.223 7.87583 11.51 8 10.5179C8.10969 9.64173 8.89508 9.2842 9.33594 9.69231C9.37203 8.92732 8.72291 8 7.8125 8C7.00095 8 6.38281 8.52885 5.42188 9.83876C4.98589 10.4331 3.89028 12.0348 2 12.5839C2 12.9807 2.60914 13.3631 3.00922 13.363C3.24861 13.363 3.47947 13.2869 3.6852 13.1583C3.89605 13.0226 4.13488 12.9433 4.38233 12.9433C4.62978 12.9433 4.86805 13.0226 5.07777 13.1583C5.28519 13.2869 5.51548 13.363 5.75661 13.363C5.996 13.363 6.22686 13.2869 6.43259 13.1583C6.64227 13.0226 6.88058 12.9433 7.12972 12.9433C7.37712 12.9433 7.61427 13.0226 7.82628 13.1583C8.03084 13.2869 8.26283 13.363 8.50283 13.363C8.74222 13.363 8.97425 13.2869 9.17881 13.1583C9.39083 13.0226 9.62797 12.9433 9.87711 12.9433C10.1246 12.9433 10.3617 13.0226 10.5725 13.1583C10.78 13.2869 11.0103 13.363 11.2503 13.363C11.4909 13.363 11.7206 13.2869 11.9274 13.1583C12.1371 13.0226 12.3754 12.9433 12.6229 12.9433C12.872 12.9433 13.1091 13.0226 13.3217 13.1583C13.5257 13.2869 13.7606 13.3774 14 13.3774V13.2119C14 13.0627 13.9414 12.6484 13.5654 12.4463Z" fill="white"/>
</svg>
