<svg width="152" height="27" viewBox="0 0 152 27" fill="none" xmlns="http://www.w3.org/2000/svg">
<path d="M19.3906 22V6H29.9844V8.78906H22.7734V12.6016H29.2813V15.3906H22.7734V22H19.3906ZM34.6454 6V22H31.3173V6H34.6454ZM41.8533 22.2344C40.6397 22.2344 39.5903 21.9766 38.7048 21.4609C37.8246 20.9401 37.1449 20.2161 36.6658 19.2891C36.1866 18.3568 35.947 17.276 35.947 16.0469C35.947 14.8073 36.1866 13.724 36.6658 12.7969C37.1449 11.8646 37.8246 11.1406 38.7048 10.625C39.5903 10.1042 40.6397 9.84375 41.8533 9.84375C43.0668 9.84375 44.1137 10.1042 44.9939 10.625C45.8793 11.1406 46.5616 11.8646 47.0408 12.7969C47.5199 13.724 47.7595 14.8073 47.7595 16.0469C47.7595 17.276 47.5199 18.3568 47.0408 19.2891C46.5616 20.2161 45.8793 20.9401 44.9939 21.4609C44.1137 21.9766 43.0668 22.2344 41.8533 22.2344ZM41.8689 19.6562C42.421 19.6562 42.8819 19.5 43.2517 19.1875C43.6215 18.8698 43.9002 18.4375 44.0877 17.8906C44.2804 17.3437 44.3767 16.7214 44.3767 16.0234C44.3767 15.3255 44.2804 14.7031 44.0877 14.1562C43.9002 13.6094 43.6215 13.1771 43.2517 12.8594C42.8819 12.5417 42.421 12.3828 41.8689 12.3828C41.3116 12.3828 40.8429 12.5417 40.4627 12.8594C40.0877 13.1771 39.8038 13.6094 39.6111 14.1562C39.4236 14.7031 39.3298 15.3255 39.3298 16.0234C39.3298 16.7214 39.4236 17.3437 39.6111 17.8906C39.8038 18.4375 40.0877 18.8698 40.4627 19.1875C40.8429 19.5 41.3116 19.6562 41.8689 19.6562ZM51.11 22L47.8444 10H51.2116L53.0709 18.0625H53.1803L55.1178 10H58.4225L60.3913 18.0156H60.4928L62.3209 10H65.6803L62.4225 22H58.8991L56.8366 14.4531H56.6881L54.6256 22H51.11ZM77.2476 11.1719C77.1382 10.7917 76.9846 10.4557 76.7866 10.1641C76.5887 9.86719 76.3465 9.61719 76.0601 9.41406C75.7788 9.20573 75.4559 9.04687 75.0913 8.9375C74.732 8.82813 74.3335 8.77344 73.896 8.77344C73.0783 8.77344 72.3596 8.97656 71.7398 9.38281C71.1252 9.78906 70.646 10.3802 70.3023 11.1562C69.9585 11.9271 69.7866 12.8698 69.7866 13.9844C69.7866 15.099 69.9559 16.0469 70.2945 16.8281C70.633 17.6094 71.1122 18.2057 71.732 18.6172C72.3517 19.0234 73.0835 19.2266 73.9273 19.2266C74.6929 19.2266 75.3465 19.0911 75.8882 18.8203C76.4351 18.5443 76.8517 18.1562 77.1382 17.6562C77.4299 17.1562 77.5757 16.5651 77.5757 15.8828L78.2632 15.9844H74.1382V13.4375H80.8335V15.4531C80.8335 16.8594 80.5366 18.0677 79.9429 19.0781C79.3491 20.0833 78.5314 20.8594 77.4898 21.4062C76.4481 21.9479 75.2554 22.2187 73.9116 22.2187C72.4116 22.2187 71.0939 21.888 69.9585 21.2266C68.8231 20.5599 67.9377 19.6146 67.3023 18.3906C66.6721 17.1615 66.357 15.7031 66.357 14.0156C66.357 12.7187 66.5445 11.5625 66.9195 10.5469C67.2997 9.52604 67.8309 8.66146 68.5132 7.95313C69.1955 7.24479 69.9898 6.70573 70.896 6.33594C71.8023 5.96615 72.784 5.78125 73.8413 5.78125C74.7476 5.78125 75.5913 5.91406 76.3726 6.17969C77.1538 6.4401 77.8465 6.8099 78.4507 7.28906C79.0601 7.76823 79.5575 8.33854 79.9429 9C80.3283 9.65625 80.5757 10.3802 80.6851 11.1719H77.2476ZM87.8539 22.2344C86.6404 22.2344 85.5909 21.9766 84.7055 21.4609C83.8253 20.9401 83.1456 20.2161 82.6664 19.2891C82.1872 18.3568 81.9477 17.276 81.9477 16.0469C81.9477 14.8073 82.1872 13.724 82.6664 12.7969C83.1456 11.8646 83.8253 11.1406 84.7055 10.625C85.5909 10.1042 86.6404 9.84375 87.8539 9.84375C89.0674 9.84375 90.1143 10.1042 90.9945 10.625C91.8799 11.1406 92.5622 11.8646 93.0414 12.7969C93.5206 13.724 93.7602 14.8073 93.7602 16.0469C93.7602 17.276 93.5206 18.3568 93.0414 19.2891C92.5622 20.2161 91.8799 20.9401 90.9945 21.4609C90.1143 21.9766 89.0674 22.2344 87.8539 22.2344ZM87.8695 19.6562C88.4216 19.6562 88.8826 19.5 89.2523 19.1875C89.6221 18.8698 89.9008 18.4375 90.0883 17.8906C90.281 17.3437 90.3773 16.7214 90.3773 16.0234C90.3773 15.3255 90.281 14.7031 90.0883 14.1562C89.9008 13.6094 89.6221 13.1771 89.2523 12.8594C88.8826 12.5417 88.4216 12.3828 87.8695 12.3828C87.3122 12.3828 86.8435 12.5417 86.4633 12.8594C86.0883 13.1771 85.8044 13.6094 85.6117 14.1562C85.4242 14.7031 85.3305 15.3255 85.3305 16.0234C85.3305 16.7214 85.4242 17.3437 85.6117 17.8906C85.8044 18.4375 86.0883 18.8698 86.4633 19.1875C86.8435 19.5 87.3122 19.6562 87.8695 19.6562ZM96.9895 22.2031C96.4739 22.2031 96.0312 22.0208 95.6614 21.6562C95.2968 21.2865 95.1145 20.8437 95.1145 20.3281C95.1145 19.8177 95.2968 19.3802 95.6614 19.0156C96.0312 18.651 96.4739 18.4687 96.9895 18.4687C97.4895 18.4687 97.927 18.651 98.302 19.0156C98.677 19.3802 98.8645 19.8177 98.8645 20.3281C98.8645 20.6719 98.776 20.987 98.5989 21.2734C98.427 21.5547 98.2005 21.7812 97.9192 21.9531C97.638 22.1198 97.3281 22.2031 96.9895 22.2031ZM103.537 22H99.9123L105.436 6H109.795L115.311 22H111.686L107.678 9.65625H107.553L103.537 22ZM103.311 15.7109H111.873V18.3516H103.311V15.7109ZM119.739 6V22H116.356V6H119.739Z" fill="black"/>
<path d="M0 10C0 6.13401 3.13401 3 7 3H13C14.6569 3 16 4.34315 16 6V19C16 20.6569 14.6569 22 13 22H3C1.34315 22 0 20.6569 0 19V10Z" fill="black"/>
<path d="M13.3214 14.5725C13.526 14.7009 13.7566 14.777 13.9962 14.777V16.1843C13.7566 16.1843 13.526 16.1102 13.3214 15.9816C13.109 15.8461 12.872 15.7664 12.6231 15.7664C12.3756 15.7664 12.1373 15.8461 11.9276 15.9816C11.7204 16.1102 11.4911 16.1843 11.2502 16.1843C11.0105 16.1843 10.7798 16.1102 10.5726 15.9816C10.3616 15.8461 10.1246 15.7664 9.87711 15.7664C9.6282 15.7664 9.39116 15.8461 9.17877 15.9816C8.97425 16.1102 8.74241 16.1843 8.50269 16.1843C8.26297 16.1843 8.03113 16.1102 7.82647 15.9816C7.61422 15.8461 7.37703 15.7664 7.12958 15.7664C6.88077 15.7664 6.64227 15.8461 6.43255 15.9816C6.22672 16.1102 5.99619 16.1843 5.75647 16.1843C5.51539 16.1843 5.28491 16.1102 5.07772 15.9816C4.86805 15.8461 4.62964 15.7664 4.38205 15.7664C4.13459 15.7664 3.89619 15.8461 3.68516 15.9816C3.26502 16.2516 2.7545 16.2529 2.33487 15.9816C2.22964 15.9136 2.11719 15.8597 2 15.8228V14.4137C2.11719 14.4506 2.22964 14.5045 2.33487 14.5725C2.75628 14.845 3.26398 14.8431 3.68516 14.5725C3.89619 14.4369 4.13459 14.3573 4.38205 14.3573C4.62964 14.3573 4.868 14.4369 5.07772 14.5725C5.28491 14.7009 5.51544 14.777 5.75647 14.777C5.99619 14.777 6.22672 14.7009 6.43255 14.5725C6.64227 14.4369 6.88077 14.3573 7.12958 14.3573C7.37703 14.3573 7.61422 14.4369 7.82647 14.5725C8.03113 14.7009 8.26297 14.777 8.50269 14.777C8.74241 14.777 8.97425 14.7009 9.17877 14.5725C9.39111 14.4369 9.6282 14.3573 9.87711 14.3573C10.1246 14.3573 10.3616 14.4369 10.5726 14.5725C10.7798 14.7009 11.0105 14.777 11.2502 14.777C11.4911 14.777 11.7204 14.7009 11.9276 14.5725C12.1372 14.4369 12.3756 14.3573 12.6231 14.3573C12.872 14.3573 13.109 14.4369 13.3214 14.5725ZM12.6231 17.1727C12.3756 17.1727 12.1372 17.2524 11.9276 17.3879C11.7204 17.5163 11.4911 17.5924 11.2502 17.5924C11.0105 17.5924 10.7798 17.5163 10.5726 17.3879C10.3616 17.2524 10.1246 17.1727 9.87711 17.1727C9.6282 17.1727 9.39111 17.2524 9.17877 17.3879C8.97425 17.5163 8.74241 17.5924 8.50269 17.5924C8.26297 17.5924 8.03113 17.5163 7.82647 17.3879C7.61422 17.2524 7.37703 17.1727 7.12958 17.1727C6.88077 17.1727 6.64227 17.2524 6.43255 17.3879C6.22672 17.5163 5.99619 17.5924 5.75647 17.5924C5.51544 17.5924 5.28491 17.5163 5.07772 17.3879C4.868 17.2524 4.62964 17.1727 4.38205 17.1727C4.13459 17.1727 3.89619 17.2524 3.68516 17.3879C3.26398 17.6585 2.75628 17.6604 2.33487 17.3879C2.22964 17.3199 2.11719 17.266 2 17.2291V18.6382C2.11719 18.6751 2.22964 18.729 2.33487 18.797C2.7545 19.0683 3.26502 19.067 3.68516 18.797C3.89619 18.6615 4.13459 18.5818 4.38205 18.5818C4.62964 18.5818 4.86805 18.6615 5.07772 18.797C5.28491 18.9256 5.51539 18.9997 5.75647 18.9997C5.99619 18.9997 6.22672 18.9256 6.43255 18.797C6.64227 18.6615 6.88077 18.5818 7.12958 18.5818C7.37703 18.5818 7.61422 18.6615 7.82647 18.797C8.03113 18.9256 8.26297 18.9997 8.50269 18.9997C8.74241 18.9997 8.97425 18.9256 9.17877 18.797C9.39116 18.6615 9.6282 18.5818 9.87711 18.5818C10.1246 18.5818 10.3616 18.6615 10.5726 18.797C10.7798 18.9256 11.0105 18.9997 11.2502 18.9997C11.4911 18.9997 11.7204 18.9256 11.9276 18.797C12.1373 18.6615 12.3756 18.5818 12.6231 18.5818C12.872 18.5818 13.109 18.6615 13.3214 18.797C13.526 18.9256 13.7566 18.9997 13.9962 18.9997V17.5924C13.7566 17.5924 13.526 17.5163 13.3214 17.3879C13.109 17.2524 12.872 17.1727 12.6231 17.1727ZM13.5654 12.4463C13.4433 12.3807 13.2865 12.3408 13.1183 12.2373C12.8582 12.0591 12.6408 11.8115 12.6094 11.4351C12.566 10.916 12.8828 10.3974 13.3906 10.7445C13.4302 10.1404 12.9898 9.55067 12.4098 9.55725C11.9223 9.56278 11.375 9.9608 10.7544 11.0978C10.5457 11.4801 10.0863 12.223 9.18341 12.223C8.45825 12.223 7.87583 11.51 8 10.5179C8.10969 9.64173 8.89508 9.2842 9.33594 9.69231C9.37203 8.92732 8.72291 8 7.8125 8C7.00095 8 6.38281 8.52885 5.42188 9.83876C4.98589 10.4331 3.89028 12.0348 2 12.5839C2 12.9807 2.60914 13.3631 3.00922 13.363C3.24861 13.363 3.47947 13.2869 3.6852 13.1583C3.89605 13.0226 4.13488 12.9433 4.38233 12.9433C4.62978 12.9433 4.86805 13.0226 5.07777 13.1583C5.28519 13.2869 5.51548 13.363 5.75661 13.363C5.996 13.363 6.22686 13.2869 6.43259 13.1583C6.64227 13.0226 6.88058 12.9433 7.12972 12.9433C7.37712 12.9433 7.61427 13.0226 7.82628 13.1583C8.03084 13.2869 8.26283 13.363 8.50283 13.363C8.74222 13.363 8.97425 13.2869 9.17881 13.1583C9.39083 13.0226 9.62797 12.9433 9.87711 12.9433C10.1246 12.9433 10.3617 13.0226 10.5725 13.1583C10.78 13.2869 11.0103 13.363 11.2503 13.363C11.4909 13.363 11.7206 13.2869 11.9274 13.1583C12.1371 13.0226 12.3754 12.9433 12.6229 12.9433C12.872 12.9433 13.1091 13.0226 13.3217 13.1583C13.5257 13.2869 13.7606 13.3774 14 13.3774V13.2119C14 13.0627 13.9414 12.6484 13.5654 12.4463Z" fill="white"/>
</svg>
