<svg width="206" height="212" viewBox="0 0 206 212" fill="none" xmlns="http://www.w3.org/2000/svg">
<circle cx="103" cy="103" r="102" fill="url(#paint0_linear_8_54)" stroke="black" stroke-width="2"/>
<path d="M184.36 183.183C185.854 183.683 187.538 183.98 189.287 183.98V189.469C187.538 189.469 185.854 189.18 184.36 188.678C182.809 188.15 181.078 187.839 179.26 187.839C177.453 187.839 175.713 188.15 174.181 188.678C172.669 189.18 170.994 189.469 169.235 189.469C167.484 189.469 165.8 189.18 164.287 188.678C162.746 188.15 161.015 187.839 159.208 187.839C157.39 187.839 155.659 188.15 154.108 188.678C152.615 189.18 150.921 189.469 149.171 189.469C147.42 189.469 145.727 189.18 144.233 188.678C142.683 188.15 140.951 187.839 139.144 187.839C137.327 187.839 135.585 188.15 134.054 188.678C132.551 189.18 130.867 189.469 129.116 189.469C127.356 189.469 125.673 189.18 124.16 188.678C122.629 188.15 120.888 187.839 119.08 187.839C117.273 187.839 115.532 188.15 113.991 188.678C110.922 189.731 107.194 189.736 104.13 188.678C103.362 188.413 102.54 188.203 101.685 188.059V182.563C102.54 182.707 103.362 182.918 104.13 183.183C107.207 184.245 110.915 184.238 113.991 183.183C115.532 182.654 117.273 182.343 119.08 182.343C120.888 182.343 122.628 182.654 124.16 183.183C125.673 183.683 127.356 183.98 129.116 183.98C130.867 183.98 132.551 183.683 134.054 183.183C135.585 182.654 137.327 182.343 139.144 182.343C140.951 182.343 142.683 182.654 144.233 183.183C145.727 183.683 147.42 183.98 149.171 183.98C150.921 183.98 152.615 183.683 154.108 183.183C155.659 182.654 157.39 182.343 159.208 182.343C161.015 182.343 162.746 182.654 164.287 183.183C165.8 183.683 167.484 183.98 169.235 183.98C170.994 183.98 172.668 183.683 174.181 183.183C175.712 182.654 177.453 182.343 179.26 182.343C181.078 182.343 182.809 182.654 184.36 183.183ZM179.26 193.324C177.453 193.324 175.712 193.634 174.181 194.163C172.668 194.664 170.994 194.961 169.235 194.961C167.484 194.961 165.8 194.664 164.287 194.163C162.746 193.634 161.015 193.324 159.208 193.324C157.39 193.324 155.659 193.634 154.108 194.163C152.615 194.664 150.921 194.961 149.171 194.961C147.42 194.961 145.727 194.664 144.233 194.163C142.683 193.634 140.951 193.324 139.144 193.324C137.327 193.324 135.585 193.634 134.054 194.163C132.551 194.664 130.867 194.961 129.116 194.961C127.356 194.961 125.673 194.664 124.16 194.163C122.628 193.634 120.888 193.324 119.08 193.324C117.273 193.324 115.532 193.634 113.991 194.163C110.915 195.218 107.207 195.226 104.13 194.163C103.362 193.898 102.54 193.688 101.685 193.544V199.039C102.54 199.183 103.362 199.393 104.13 199.658C107.194 200.717 110.922 200.711 113.991 199.658C115.532 199.13 117.273 198.819 119.08 198.819C120.888 198.819 122.629 199.13 124.16 199.658C125.673 200.16 127.356 200.449 129.116 200.449C130.867 200.449 132.551 200.16 134.054 199.658C135.585 199.13 137.327 198.819 139.144 198.819C140.951 198.819 142.683 199.13 144.233 199.658C145.727 200.16 147.42 200.449 149.171 200.449C150.921 200.449 152.615 200.16 154.108 199.658C155.659 199.13 157.39 198.819 159.208 198.819C161.015 198.819 162.746 199.13 164.287 199.658C165.8 200.16 167.484 200.449 169.235 200.449C170.994 200.449 172.669 200.16 174.181 199.658C175.713 199.13 177.453 198.819 179.26 198.819C181.078 198.819 182.809 199.13 184.36 199.658C185.854 200.16 187.538 200.449 189.287 200.449V194.961C187.538 194.961 185.854 194.664 184.36 194.163C182.809 193.634 181.078 193.324 179.26 193.324ZM186.142 174.89C185.25 174.635 184.105 174.479 182.877 174.076C180.977 173.381 179.39 172.415 179.16 170.947C178.844 168.923 181.157 166.9 184.865 168.254C185.154 165.898 181.938 163.598 177.703 163.623C174.143 163.645 170.146 165.197 165.614 169.631C164.09 171.122 160.735 174.02 154.142 174.02C148.846 174.02 144.593 171.239 145.5 167.37C146.301 163.953 152.036 162.558 155.256 164.15C155.519 161.167 150.779 157.55 144.131 157.55C138.204 157.55 133.69 159.612 126.673 164.721C123.489 167.039 115.489 173.286 101.685 175.427C101.685 176.975 106.133 178.466 109.055 178.466C110.803 178.466 112.489 178.169 113.991 177.668C115.531 177.138 117.275 176.829 119.082 176.829C120.889 176.829 122.629 177.138 124.16 177.668C125.675 178.169 127.357 178.466 129.118 178.466C130.866 178.466 132.552 178.169 134.054 177.668C135.585 177.138 137.325 176.829 139.145 176.829C140.951 176.829 142.683 177.138 144.231 177.668C145.725 178.169 147.419 178.466 149.172 178.466C150.92 178.466 152.615 178.169 154.108 177.668C155.657 177.138 157.388 176.829 159.208 176.829C161.015 176.829 162.747 177.138 164.286 177.668C165.801 178.169 167.483 178.466 169.235 178.466C170.992 178.466 172.67 178.169 174.18 177.668C175.712 177.138 177.452 176.829 179.259 176.829C181.078 176.829 182.81 177.138 184.362 177.668C185.852 178.169 187.567 178.522 189.315 178.522V177.876C189.315 177.294 188.888 175.679 186.142 174.89Z" fill="white"/>
<path d="M104.36 183.183C105.854 183.683 107.538 183.98 109.287 183.98V189.469C107.538 189.469 105.854 189.18 104.36 188.678C102.809 188.15 101.078 187.839 99.2605 187.839C97.4534 187.839 95.7128 188.15 94.1813 188.678C92.6686 189.18 90.9941 189.469 89.2346 189.469C87.484 189.469 85.7999 189.18 84.2869 188.678C82.7458 188.15 81.0148 187.839 79.2077 187.839C77.3901 187.839 75.659 188.15 74.108 188.678C72.6145 189.18 70.9215 189.469 69.1709 189.469C67.4204 189.469 65.7273 189.18 64.2328 188.678C62.6828 188.15 60.9507 187.839 59.1437 187.839C57.3267 187.839 55.5851 188.15 54.0536 188.678C52.5505 189.18 50.867 189.469 49.1165 189.469C47.356 189.469 45.6729 189.18 44.1599 188.678C42.6287 188.15 40.8878 187.839 39.0797 187.839C37.2726 187.839 35.5317 188.15 33.9906 188.678C30.9225 189.731 27.1944 189.736 24.1301 188.678C23.3616 188.413 22.5404 188.203 21.6846 188.059V182.563C22.5404 182.707 23.3616 182.918 24.1301 183.183C27.2074 184.245 30.915 184.238 33.9906 183.183C35.5317 182.654 37.2726 182.343 39.0797 182.343C40.8878 182.343 42.6284 182.654 44.1599 183.183C45.6729 183.683 47.3563 183.98 49.1165 183.98C50.867 183.98 52.5505 183.683 54.0536 183.183C55.5851 182.654 57.3267 182.343 59.1437 182.343C60.9507 182.343 62.6828 182.654 64.2328 183.183C65.7273 183.683 67.4204 183.98 69.1709 183.98C70.9215 183.98 72.6145 183.683 74.108 183.183C75.6587 182.654 77.3901 182.343 79.2077 182.343C81.0148 182.343 82.7458 182.654 84.2869 183.183C85.7995 183.683 87.484 183.98 89.2346 183.98C90.9937 183.98 92.6683 183.683 94.1813 183.183C95.7124 182.654 97.4534 182.343 99.2605 182.343C101.078 182.343 102.809 182.654 104.36 183.183ZM99.2605 193.324C97.4534 193.324 95.7124 193.634 94.1813 194.163C92.6683 194.664 90.9937 194.961 89.2346 194.961C87.484 194.961 85.7995 194.664 84.2869 194.163C82.7458 193.634 81.0148 193.324 79.2077 193.324C77.3901 193.324 75.6587 193.634 74.108 194.163C72.6145 194.664 70.9215 194.961 69.1709 194.961C67.4204 194.961 65.7273 194.664 64.2328 194.163C62.6828 193.634 60.9507 193.324 59.1437 193.324C57.3267 193.324 55.5851 193.634 54.0536 194.163C52.5505 194.664 50.867 194.961 49.1165 194.961C47.3563 194.961 45.6729 194.664 44.1599 194.163C42.6284 193.634 40.8878 193.324 39.0797 193.324C37.2726 193.324 35.5317 193.634 33.9906 194.163C30.915 195.218 27.2074 195.226 24.1301 194.163C23.3616 193.898 22.5404 193.688 21.6846 193.544V199.039C22.5404 199.183 23.3616 199.393 24.1301 199.658C27.1944 200.717 30.9225 200.711 33.9906 199.658C35.5317 199.13 37.2726 198.819 39.0797 198.819C40.8878 198.819 42.6287 199.13 44.1599 199.658C45.6729 200.16 47.356 200.449 49.1165 200.449C50.867 200.449 52.5505 200.16 54.0536 199.658C55.5851 199.13 57.3267 198.819 59.1437 198.819C60.9507 198.819 62.6828 199.13 64.2328 199.658C65.7273 200.16 67.4204 200.449 69.1709 200.449C70.9215 200.449 72.6145 200.16 74.108 199.658C75.659 199.13 77.3901 198.819 79.2077 198.819C81.0148 198.819 82.7458 199.13 84.2869 199.658C85.7999 200.16 87.484 200.449 89.2346 200.449C90.9941 200.449 92.6686 200.16 94.1813 199.658C95.7128 199.13 97.4534 198.819 99.2605 198.819C101.078 198.819 102.809 199.13 104.36 199.658C105.854 200.16 107.538 200.449 109.287 200.449V194.961C107.538 194.961 105.854 194.664 104.36 194.163C102.809 193.634 101.078 193.324 99.2605 193.324ZM106.142 174.89C105.25 174.635 104.105 174.479 102.877 174.076C100.977 173.381 99.3895 172.415 99.1602 170.947C98.8435 168.923 101.157 166.9 104.865 168.254C105.154 165.898 101.938 163.598 97.7026 163.623C94.143 163.645 90.1462 165.197 85.614 169.631C84.0901 171.122 80.7351 174.02 74.1419 174.02C68.8464 174.02 64.5932 171.239 65.5 167.37C66.301 163.953 72.0364 162.558 75.2558 164.15C75.5194 161.167 70.7791 157.55 64.1308 157.55C58.2044 157.55 53.6904 159.612 46.6731 164.721C43.4893 167.039 35.4885 173.286 21.6846 175.427C21.6846 176.975 26.1329 178.466 29.0545 178.466C30.8027 178.466 32.4885 178.169 33.9909 177.668C35.5306 177.138 37.2747 176.829 39.0817 176.829C40.8888 176.829 42.6287 177.138 44.1602 177.668C45.6749 178.169 47.3567 178.466 49.1175 178.466C50.8657 178.466 52.5515 178.169 54.0539 177.668C55.5851 177.138 57.3254 176.829 59.1447 176.829C60.9514 176.829 62.6832 177.138 64.2314 177.668C65.7253 178.169 67.4193 178.466 69.172 178.466C70.9201 178.466 72.6145 178.169 74.1084 177.668C75.6566 177.138 77.3884 176.829 79.2077 176.829C81.0148 176.829 82.7465 177.138 84.2862 177.668C85.8009 178.169 87.4827 178.466 89.2353 178.466C90.9924 178.466 92.6697 178.169 94.1803 177.668C95.7118 177.138 97.4517 176.829 99.2587 176.829C101.078 176.829 102.81 177.138 104.362 177.668C105.852 178.169 107.567 178.522 109.315 178.522V177.876C109.315 177.294 108.888 175.679 106.142 174.89Z" fill="white"/>
<circle cx="103" cy="103" r="102" stroke="black" stroke-width="2"/>
<rect x="80.5" y="80.5" width="44" height="44" rx="6.5" fill="white" stroke="white"/>
<defs>
<linearGradient id="paint0_linear_8_54" x1="204" y1="103" x2="2" y2="103" gradientUnits="userSpaceOnUse">
<stop offset="0.0101415" stop-color="#0B8793"/>
<stop offset="1" stop-color="#360033"/>
</linearGradient>
</defs>
</svg>
